# xmcd CD database file
#
# Track frame offsets:
#	150
#	21300
#	35550
#	52650
#
# Disc length: 1080 seconds
#
# Revision: 1
# Processed by: cddbd v1.5.1PL2 Copyright (c) Steve Scherf et al.
# Submitted via: CDex 1.60beta1
#
DISCID=28043604
DTITLE=C.S.C→luv - 東方NEW WAVE OF NEW WAVE Vol.1
DYEAR=2005
DGENRE=Soundtrack
TTITLE0=永夜抄
TTITLE1=幽霊楽団
TTITLE2=恋色マスタースパーク
TTITLE3=U.N.オーエンは彼女なのか？
EXTD=YEAR: 2005
EXTT0=
EXTT1=
EXTT2=
EXTT3=
PLAYORDER=
